Coordinates
version=1
nRows=7
nColumns=46
inDegrees=yes

Units are S.I. units (second, meters, Newtons, ...)
Angles are in degrees.

endheader
time	pelvis_tilt	pelvis_list	pelvis_rotation	pelvis_tx	pelvis_ty	pelvis_tz	bb_angle	bb_tx	bb_ty	bb_tz	hip_flexion_r	hip_adduction_r	hip_rotation_r	knee_angle_r	knee_angle_r_beta	ankle_angle_r	subtalar_angle_r	mtp_angle_r	crank_angle_r	hip_flexion_l	hip_adduction_l	hip_rotation_l	knee_angle_l	knee_angle_l_beta	ankle_angle_l	subtalar_angle_l	mtp_angle_l	crank_angle_l	lumbar_extension	lumbar_bending	lumbar_rotation	arm_flex_r	arm_add_r	arm_rot_r	elbow_flex_r	pro_sup_r	wrist_flex_r	wrist_dev_r	arm_flex_l	arm_add_l	arm_rot_l	elbow_flex_l	pro_sup_l	wrist_flex_l	wrist_dev_l
      7.50500000	    -14.78757587	     -0.31305637	      0.57233516	      0.13356440	      1.09425661	     -0.26230212	      0.00000000	      0.50000000	      0.00000000	      0.25000000	     45.48497771	     -5.17045409	     -7.39079190	     33.56598787	      0.58583701	     -9.80363361	     -7.02458151	      0.00000000	      0.00000000	     83.23247659	     -2.35010232	      5.10819971	    115.04568944	      2.00792607	     -2.67169773	    -14.43987620	      0.00000000	      0.00000000	    -59.45040829	      0.11890496	     -3.74609571	     89.72696133	     -4.29341467	     32.83655620	     36.55822665	     24.34779016	      0.00000000	      0.00000000	     89.61757822	    -12.91329454	     38.89795257	     43.46672070	     30.61751153	      0.00000000	      0.00000000
      7.51000000	    -14.85515491	     -0.11792608	      0.97752246	      0.13359538	      1.09414086	     -0.26126284	      0.00000000	      0.50000000	      0.00000000	      0.25000000	     44.47727865	     -5.64927187	     -8.23845745	     32.61201996	      0.56918712	    -10.72748687	     -6.21178120	      0.00000000	      0.00000000	     84.81229195	     -2.17996022	      4.97929400	    115.83795804	      2.02175377	     -2.72157834	    -14.20426609	      0.00000000	      0.00000000	    -59.26519088	      0.11072637	     -3.80276873	     89.72382113	     -4.42843038	     32.91895409	     36.08416730	     24.24754958	      0.00000000	      0.00000000	     89.62314616	    -12.42181717	     39.03791753	     43.30914508	     30.55356978	      0.00000000	      0.00000000
      7.51500000	    -14.88410186	      0.04363598	      1.37094821	      0.13356594	      1.09419791	     -0.26016020	      0.00000000	      0.50000000	      0.00000000	      0.25000000	     43.55236461	     -6.09635887	     -9.12902724	     31.91586610	      0.55703695	    -11.63653239	     -5.50273155	      0.00000000	      0.00000000	     86.26257811	     -2.01667931	      4.86787053	    116.48671092	      2.03307664	     -2.59947972	    -14.10749276	      0.00000000	      0.00000000	    -59.12576364	      0.05466520	     -3.84252858	     89.72212720	     -4.65750058	     32.96876402	     35.62065871	     24.14944228	      0.00000000	      0.00000000	     89.62174650	    -11.96794025	     39.16217751	     43.20992851	     30.50111392	      0.00000000	      0.00000000
      7.52000000	    -14.89715185	      0.17404631	      1.80839448	      0.13347927	      1.09449980	     -0.25920376	      0.00000000	      0.50000000	      0.00000000	      0.25000000	     42.64466348	     -6.54074833	     -9.89485927	     31.29267783	      0.54616026	    -12.54992132	     -4.72324157	      0.00000000	      0.00000000	     87.63260495	     -1.79534224	      4.76111508	    116.96629941	      2.04144704	     -2.53569179	    -13.95743720	      0.00000000	      0.00000000	    -59.01694256	      0.10502935	     -3.79135751	     89.72515907	     -4.89754179	     33.05053679	     35.15100404	     24.04736451	      0.00000000	      0.00000000	     89.62272496	    -11.38554793	     39.27671861	     43.05326048	     30.42323818	      0.00000000	      0.00000000
      7.52500000	    -14.88625317	      0.30362855	      2.16166569	      0.13330990	      1.09500172	     -0.25808198	      0.00000000	      0.50000000	      0.00000000	      0.25000000	     41.87126540	     -6.93844489	    -10.67262628	     30.95438642	      0.54025596	    -13.46585090	     -4.11859770	      0.00000000	      0.00000000	     88.88648034	     -1.67558949	      4.61904223	    117.30217198	      2.04730912	     -2.43328560	    -13.85193321	      0.00000000	      0.00000000	    -58.97718825	      0.02682927	     -3.84289331	     89.71913976	     -5.11694070	     33.06983799	     34.84817655	     23.97952997	      0.00000000	      0.00000000	     89.62266499	    -10.91068441	     39.31071518	     43.04195446	     30.38319742	      0.00000000	      0.00000000
      7.53000000	    -14.75847385	      0.32608455	      2.65637185	      0.13308002	      1.09599914	     -0.25729603	      0.00000000	      0.50000000	      0.00000000	      0.25000000	     40.96643445	     -7.33189327	    -11.54757597	     30.66296855	      0.53516976	    -14.43235418	     -3.45198825	      0.00000000	      0.00000000	     89.93689588	     -1.39005808	      4.56177968	    117.43053698	      2.04954951	     -2.35431990	    -13.75829607	      0.00000000	      0.00000000	    -59.04401823	      0.13916304	     -3.51111846	     89.72859332	     -5.77463560	     33.51493346	     34.33095258	     23.79171008	      0.00000000	      0.00000000	     89.63201886	     -9.48793200	     38.61343491	     42.08684118	     29.80500358	      0.00000000	      0.00000000
      7.53500000	    -14.78316851	      0.44513137	      2.96883971	      0.13272430	      1.09701646	     -0.25625329	      0.00000000	      0.50000000	      0.00000000	      0.25000000	     40.42410359	     -7.69357326	    -12.11671454	     30.63617974	      0.53470221	    -15.52670676	     -3.02726469	      0.00000000	      0.00000000	     90.98157649	     -1.28125599	      4.38500929	    117.39628467	      2.04895170	     -2.20663391	    -13.64601040	      0.00000000	      0.00000000	    -59.07243879	      0.07713433	     -3.56649122	     89.72778751	     -5.97483635	     33.46742913	     34.22612887	     23.75875148	      0.00000000	      0.00000000	     89.63373622	     -9.18325746	     38.57691592	     42.30042932	     29.80366758	      0.00000000	      0.00000000
